<?xml version="1.0" encoding="utf-8"?>
<!-- Generator: Adobe Illustrator 23.0.1, SVG Export Plug-In . SVG Version: 6.00 Build 0)  -->
<svg version="1.1" id="Layer_1" xmlns="http://www.w3.org/2000/svg" xmlns:xlink="http://www.w3.org/1999/xlink" x="0px" y="0px"
	 viewBox="0 0 192 43" style="enable-background:new 0 0 192 43;" xml:space="preserve">
<style type="text/css">
	.st0{opacity:0.32;}
</style>
<g>
	<g>
		<path d="M41,28.9l-11.7-4.5v-6.8c0-0.2-0.1-0.4-0.2-0.5l-6.9-6V7.2h1.2c0.5,0,0.9-0.3,0.9-0.7s-0.4-0.7-0.9-0.7h-1.2V4.3
			c0-0.4-0.4-0.7-0.9-0.7c-0.5,0-0.9,0.3-0.9,0.7v1.5h-1.2c-0.5,0-0.9,0.3-0.9,0.7s0.4,0.7,0.9,0.7h1.2v3.9l-6.9,6
			c-0.1,0.1-0.2,0.3-0.2,0.5v6.8L1.7,28.9c-0.4,0.2-0.6,0.6-0.4,0.9s0.7,0.5,1.1,0.3L4,29.5v9.2c0,0.4,0.4,0.7,0.8,0.7h9.3h4.1h6.1
			h4.1h9.3c0.5,0,0.8-0.3,0.8-0.7v-9.2l1.6,0.6c0.4,0.2,0.9,0,1.1-0.3C41.6,29.4,41.5,29,41,28.9z M13.3,38h-3v-4.4
			c0-0.4-0.4-0.7-0.9-0.7s-0.9,0.3-0.9,0.7V38H5.7v-9.1l7.6-2.9V38z M23.5,38h-4.4v-6c0-1,1-1.8,2.2-1.8c0.6,0,1.1,0.2,1.5,0.5
			s0.6,0.8,0.6,1.3L23.5,38L23.5,38z M27.7,24.8V38h-2.4v-6c0-0.9-0.4-1.7-1.1-2.3c-0.7-0.6-1.7-0.9-2.8-0.9c-2.1,0-3.9,1.4-3.9,3.2
			v6H15V24.8v-6.9l0,0l6.3-5.5l6.3,5.5C27.7,17.9,27.7,24.8,27.7,24.8z M37,38H34v-3c0-0.4-0.4-0.7-0.8-0.7c-0.5,0-0.8,0.3-0.8,0.7
			v3h-3V25.9l7.6,2.9L37,38L37,38z"/>
	</g>
</g>
<g>
	<path d="M32.9,17.3c0.5,0.5,1.3,0.8,2.2,0.8c1.3,0,2-0.9,2-2.1c0-1.2-0.5-1.8-1.8-2.5c-1.5-0.7-2.5-1.8-2.5-3.6
		c0-1.9,1.2-3.4,3.1-3.4c1,0,1.7,0.3,2.1,0.6l-0.3,1.3c-0.3-0.2-0.9-0.6-1.8-0.6c-1.3,0-1.8,1-1.8,1.9c0,1.2,0.6,1.8,1.9,2.4
		c1.6,0.8,2.4,1.8,2.4,3.7c0,1.9-1.1,3.6-3.3,3.6c-0.9,0-1.9-0.4-2.4-0.8L32.9,17.3z"/>
	<path d="M41.4,7.7v2.6h1.8v1.3h-1.8v4.9c0,1.1,0.2,1.8,0.9,1.8c0.3,0,0.6-0.1,0.7-0.1l0.1,1.2c-0.2,0.1-0.6,0.2-1.1,0.2
		c-0.6,0-1-0.2-1.3-0.7c-0.3-0.5-0.5-1.3-0.5-2.3v-4.9h-1v-1.3h1V8.1L41.4,7.7z"/>
	<path d="M44.2,18.3c0-0.7,0.3-1.2,0.8-1.2s0.8,0.5,0.8,1.2c0,0.7-0.3,1.2-0.8,1.2C44.5,19.5,44.2,19,44.2,18.3z"/>
	<path d="M52.4,6.8h1.2v8.4c0,3.3-1.2,4.4-2.9,4.4c-0.5,0-1-0.1-1.3-0.3l0.2-1.3c0.3,0.1,0.6,0.2,1,0.2c1.1,0,1.7-0.6,1.7-3.1
		L52.4,6.8L52.4,6.8z"/>
	<path d="M61.7,14.7c0,3.3-1.7,4.8-3.4,4.8c-1.8,0-3.3-1.8-3.3-4.6c0-3,1.5-4.8,3.4-4.8C60.4,10.1,61.7,12,61.7,14.7z M56.3,14.8
		c0,2,0.9,3.5,2.1,3.5c1.2,0,2.1-1.5,2.1-3.5c0-1.5-0.6-3.5-2-3.5C57,11.3,56.3,13.1,56.3,14.8z"/>
	<path d="M63.1,17.6c0.4,0.3,1,0.6,1.6,0.6c0.9,0,1.3-0.6,1.3-1.3c0-0.8-0.3-1.2-1.3-1.6c-1.2-0.6-1.8-1.5-1.8-2.6
		c0-1.4,0.9-2.6,2.4-2.6c0.7,0,1.3,0.3,1.7,0.6l-0.3,1.2c-0.3-0.2-0.8-0.5-1.4-0.5c-0.7,0-1.1,0.6-1.1,1.2c0,0.7,0.4,1.1,1.3,1.5
		c1.2,0.6,1.8,1.4,1.8,2.7c0,1.6-0.9,2.7-2.5,2.7c-0.7,0-1.4-0.2-1.9-0.6L63.1,17.6z"/>
	<path d="M69.5,15.1c0,2.2,1.1,3.1,2.3,3.1c0.9,0,1.4-0.2,1.9-0.5l0.2,1.2c-0.4,0.3-1.2,0.6-2.3,0.6c-2.1,0-3.3-1.8-3.3-4.5
		s1.2-4.9,3.2-4.9c2.2,0,2.8,2.6,2.8,4.2c0,0.3,0,0.6,0,0.8L69.5,15.1L69.5,15.1z M73.2,13.9c0-1-0.3-2.7-1.7-2.7
		c-1.3,0-1.8,1.5-1.9,2.7H73.2z"/>
	<path d="M75.9,13.2c0-1.1,0-2.1-0.1-2.9h1.1l0.1,1.6h0c0.5-1.1,1.3-1.8,2.4-1.8c1.6,0,2.9,1.8,2.9,4.6c0,3.2-1.5,4.8-3.1,4.8
		c-0.9,0-1.7-0.5-2.1-1.4h0V23h-1.2L75.9,13.2L75.9,13.2z M77.1,15.6c0,0.2,0,0.5,0.1,0.7c0.2,1.1,1,1.9,1.8,1.9
		c1.3,0,2.1-1.4,2.1-3.5c0-1.8-0.7-3.3-2-3.3c-0.8,0-1.6,0.8-1.9,2c0,0.2-0.1,0.4-0.1,0.7L77.1,15.6L77.1,15.6z"/>
	<path d="M83.9,6.1h1.2v5.6h0c0.2-0.5,0.5-0.9,0.9-1.1c0.4-0.3,0.8-0.5,1.3-0.5c0.9,0,2.4,0.7,2.4,3.9v5.4h-1.2v-5.2
		c0-1.4-0.4-2.7-1.6-2.7c-0.8,0-1.4,0.7-1.7,1.6c-0.1,0.2-0.1,0.5-0.1,0.8v5.4h-1.2V6.1z"/>
	<path d="M101.3,18.9c-0.4,0.3-1.3,0.6-2.5,0.6c-2.7,0-4.7-2.2-4.7-6.3c0-3.9,2-6.6,4.9-6.6c1.2,0,1.9,0.3,2.3,0.6L101,8.4
		c-0.5-0.3-1.1-0.5-1.9-0.5c-2.2,0-3.7,1.9-3.7,5.2c0,3.1,1.3,5,3.6,5c0.7,0,1.5-0.2,2-0.5L101.3,18.9z"/>
	<path d="M106.5,19.3l-0.1-1.1h0c-0.4,0.7-1.1,1.3-2.1,1.3c-1.4,0-2.1-1.3-2.1-2.6c0-2.2,1.5-3.4,4.1-3.3v-0.2
		c0-0.7-0.2-2.1-1.6-2.1c-0.6,0-1.3,0.3-1.8,0.7l-0.3-1.1c0.6-0.5,1.4-0.8,2.2-0.8c2.1,0,2.6,1.9,2.6,3.7v3.4c0,0.8,0,1.5,0.1,2.2
		L106.5,19.3L106.5,19.3z M106.3,14.7c-1.3,0-2.9,0.3-2.9,2c0,1.1,0.5,1.6,1.2,1.6c0.9,0,1.4-0.7,1.6-1.5c0-0.2,0.1-0.4,0.1-0.5
		V14.7z"/>
	<path d="M110.9,7.7v2.6h1.8v1.3h-1.8v4.9c0,1.1,0.2,1.8,0.9,1.8c0.3,0,0.6-0.1,0.7-0.1l0.1,1.2c-0.2,0.1-0.6,0.2-1.1,0.2
		c-0.6,0-1-0.2-1.3-0.7c-0.3-0.5-0.5-1.3-0.5-2.3v-4.9h-1.1v-1.3h1.1V8.1L110.9,7.7z"/>
	<path d="M114.1,6.1h1.2v5.6h0c0.2-0.5,0.5-0.9,0.9-1.1c0.4-0.3,0.8-0.5,1.3-0.5c0.9,0,2.4,0.7,2.4,3.9v5.4h-1.2v-5.2
		c0-1.4-0.4-2.7-1.6-2.7c-0.8,0-1.4,0.7-1.7,1.6c-0.1,0.2-0.1,0.5-0.1,0.8v5.4h-1.2L114.1,6.1L114.1,6.1z"/>
	<path d="M128,14.7c0,3.3-1.7,4.8-3.4,4.8c-1.8,0-3.3-1.8-3.3-4.6c0-3,1.5-4.8,3.4-4.8C126.7,10.1,128,12,128,14.7z M122.6,14.8
		c0,2,0.9,3.5,2.1,3.5c1.2,0,2.1-1.5,2.1-3.5c0-1.5-0.6-3.5-2-3.5C123.3,11.3,122.6,13.1,122.6,14.8z"/>
	<path d="M129.6,6.1h1.2v13.2h-1.2V6.1z"/>
	<path d="M134.3,7.8c0,0.6-0.3,1-0.8,1c-0.4,0-0.7-0.4-0.7-1c0-0.6,0.3-1,0.8-1C134,6.8,134.3,7.2,134.3,7.8z M132.9,19.3v-9h1.2v9
		H132.9z"/>
	<path d="M141,19c-0.3,0.2-1,0.5-1.9,0.5c-2.1,0-3.4-1.8-3.4-4.6c0-2.8,1.4-4.8,3.6-4.8c0.7,0,1.4,0.2,1.7,0.5l-0.3,1.3
		c-0.3-0.2-0.8-0.4-1.4-0.4c-1.6,0-2.4,1.5-2.4,3.4c0,2.1,1,3.4,2.4,3.4c0.7,0,1.2-0.2,1.5-0.5L141,19z"/>
</g>
<g class="st0">
	<path d="M47.2,32.1c0.2,0,0.2,0.1,0.2,0.4c0,0.3-0.2,0.6-0.7,1.1s-0.9,0.9-1.5,1.1s-1.1,0.4-1.6,0.4c-0.7,0-1.3-0.3-1.9-0.9
		S41,32.8,41,31.7c0-2.1,0.7-4.1,2-6.1s2.7-3,3.9-3c0.5,0,0.8,0.2,1.1,0.6c0.3,0.4,0.4,0.8,0.4,1.3c0,0.5,0,0.8-0.1,1.1
		s-0.2,0.5-0.4,0.7c-0.2,0.2-0.4,0.3-0.5,0.3c-0.1,0-0.2,0-0.2-0.1c-0.1-0.1-0.1-0.2-0.1-0.4c0-0.1,0-0.4,0.1-0.7
		c0.1-0.4,0.1-0.6,0.1-0.8c0-0.5-0.2-0.8-0.5-0.8c-0.5,0-1.2,0.4-2,1.2s-1.5,1.8-2,3.1s-0.8,2.4-0.8,3.5c0,0.7,0.2,1.3,0.5,1.8
		c0.3,0.5,0.8,0.7,1.4,0.7c0.3,0,0.8-0.1,1.2-0.3s0.9-0.5,1.3-0.9S47.1,32.1,47.2,32.1z"/>
	<path d="M49.2,32.2c1.5-3.5,2.7-5.3,3.6-5.3c0.3,0,0.5,0.2,0.6,0.6c0.2,0.4,0.3,1.2,0.4,2.5c0.1,1.4,0.3,2.4,0.7,3
		c0.2,0.3,0.3,0.5,0.3,0.7c0,0.1-0.1,0.3-0.2,0.4s-0.2,0.2-0.4,0.2c-0.3,0-0.6-0.2-0.8-0.7s-0.4-1.2-0.5-2.4
		c-0.1-1.1-0.1-1.8-0.2-2.1s-0.2-0.5-0.4-0.5c-0.4,0-1.2,1.4-2.5,4.2c-0.4,0.8-0.6,1.4-0.8,1.7s-0.3,0.4-0.5,0.4
		c-0.2,0-0.3-0.1-0.4-0.2c-0.1-0.1-0.2-0.3-0.2-0.5c0-0.1,0-0.4,0.1-0.8c0.5-3.3,0.9-6.5,1.1-9.7c0.1-0.7,0.2-1.2,0.3-1.5
		s0.3-0.4,0.3-0.4c0.2,0,0.3,0.1,0.5,0.3s0.2,0.4,0.2,0.8c0,0.9-0.2,2.2-0.5,3.9c-0.2,0.8-0.3,1.9-0.5,3.1s-0.3,2-0.3,2.3
		C49.1,32.1,49.1,32.2,49.2,32.2C49.2,32.2,49.2,32.2,49.2,32.2z"/>
	<path d="M58.7,31.1c-0.5,1.1-1,2-1.5,2.6s-1,0.9-1.5,0.9c-0.3,0-0.5-0.2-0.8-0.6c-0.3-0.4-0.4-1-0.4-1.8c0-0.7,0.1-1.7,0.4-3
		c0.2-1.1,0.3-1.9,0.3-2.3c0.1-0.3,0.3-0.5,0.5-0.5c0.2,0,0.3,0.1,0.4,0.2s0.2,0.3,0.2,0.5c0,0.4-0.1,0.9-0.3,1.5
		c-0.4,1.3-0.5,2.4-0.5,3.3c0,0.8,0.2,1.3,0.5,1.3c0.4,0,0.9-0.4,1.5-1.3s1.1-2,1.5-3.5c0.2-0.6,0.3-1,0.4-1.2s0.2-0.3,0.4-0.3
		c0.3,0,0.4,0.2,0.4,0.7c0,0.1,0,0.2-0.1,0.6c-0.2,1.1-0.3,2.2-0.3,3.2c0,1.2,0.2,2,0.5,2.3c0.2,0.2,0.2,0.3,0.2,0.5
		c0,0.1-0.1,0.3-0.2,0.4s-0.3,0.2-0.4,0.2c-0.3,0-0.5-0.3-0.7-0.8s-0.3-1.3-0.3-2.4v-0.3C58.7,31.3,58.7,31.2,58.7,31.1z"/>
	<path d="M61.9,31.4c0-0.1,0.1-0.2,0.1-0.4c0.3-0.8,0.5-1.4,0.7-1.9c0.2-0.5,0.5-0.9,0.7-1.3c0.3-0.4,0.5-0.7,0.7-1s0.4-0.4,0.6-0.5
		s0.3-0.1,0.5-0.1c0.3,0,0.6,0.1,0.8,0.4s0.3,0.6,0.3,0.9c0,0.2,0,0.3-0.1,0.4c-0.1,0.1-0.2,0.2-0.3,0.2c-0.2,0-0.3-0.1-0.4-0.3
		s-0.3-0.3-0.4-0.3c-0.4,0-1,0.6-1.7,1.9s-1.2,2.7-1.3,4.3c0,0.4-0.1,0.7-0.2,0.8s-0.3,0.2-0.5,0.2c-0.2,0-0.3-0.2-0.4-0.6
		s-0.1-1-0.1-1.9c0-0.2,0-0.8,0-1.6c0-1,0.1-1.8,0.1-2.4c0-0.1,0-0.3,0.1-0.7c0-0.4,0.1-0.7,0.1-0.8s0.1-0.3,0.3-0.4
		c0.1-0.1,0.3-0.2,0.4-0.2c0.1,0,0.3,0.1,0.3,0.2c0.1,0.1,0.1,0.3,0.1,0.4c0,0.2,0,0.5-0.1,0.9c-0.1,0.4-0.1,0.7-0.2,0.8
		c0,0.2,0,0.4-0.1,0.5c0,0.2-0.1,0.8-0.1,1.7l0,0.3L61.9,31.4L61.9,31.4z"/>
	<path d="M67.2,34.9c-0.6,0-1-0.2-1.3-0.7s-0.5-1.1-0.5-1.8c0-1.3,0.4-2.8,1.2-4.2s1.6-2.2,2.3-2.2c0.3,0,0.6,0.2,0.8,0.7
		S70,27.5,70,28c0,0.3-0.1,0.6-0.2,0.8s-0.2,0.3-0.3,0.3c-0.2,0-0.4-0.3-0.5-0.9c-0.1-0.6-0.3-1-0.5-1c-0.4,0-0.9,0.6-1.4,1.9
		s-0.8,2.3-0.8,3.2c0,0.9,0.4,1.3,1.1,1.3c0.6,0,1.3-0.3,2-1.1c0.3-0.3,0.5-0.4,0.6-0.4s0.2,0.1,0.2,0.3c0,0.4-0.3,0.9-1.1,1.5
		C68.6,34.6,67.9,34.9,67.2,34.9z"/>
	<path d="M71.4,32.2c1.4-3.5,2.7-5.3,3.6-5.3c0.3,0,0.4,0.2,0.6,0.6c0.2,0.4,0.3,1.2,0.4,2.5c0.1,1.4,0.3,2.4,0.7,3
		c0.2,0.3,0.3,0.5,0.3,0.7c0,0.1-0.1,0.3-0.2,0.4s-0.2,0.2-0.4,0.2c-0.3,0-0.6-0.2-0.8-0.7s-0.4-1.2-0.4-2.4
		C75.1,30,75,29.3,74.9,29s-0.2-0.5-0.4-0.5c-0.4,0-1.2,1.4-2.5,4.2c-0.4,0.8-0.6,1.4-0.8,1.7s-0.3,0.4-0.5,0.4
		c-0.2,0-0.3-0.1-0.4-0.2c-0.1-0.1-0.2-0.3-0.2-0.5c0-0.1,0-0.4,0.1-0.8c0.5-3.3,0.9-6.5,1.1-9.7c0.1-0.7,0.2-1.2,0.3-1.5
		s0.3-0.4,0.3-0.4c0.2,0,0.3,0.1,0.5,0.3s0.2,0.4,0.2,0.8c0,0.9-0.2,2.2-0.5,3.9c-0.2,0.8-0.3,1.9-0.5,3.1s-0.3,2-0.3,2.3
		C71.3,32.1,71.4,32.2,71.4,32.2C71.4,32.2,71.4,32.2,71.4,32.2z"/>
	<path d="M79.8,25.1c0-0.1-0.1-0.2-0.1-0.4c0-0.2,0.1-0.4,0.2-0.5c0.1-0.1,0.5-0.1,1.1-0.1c0.8,0,1.5,0,2.1-0.1
		c0.6-0.1,1.6-0.2,2.9-0.5c0.5-0.1,0.9-0.1,1.4-0.1c0.2,0,0.4,0,0.6,0s0.3,0.1,0.4,0.1s0.2,0.1,0.2,0.3c0.1,0.1,0.1,0.3,0.1,0.4
		c0,0.4-0.1,0.5-0.3,0.5c-0.1,0-0.3,0-0.5,0c-0.2,0-0.5,0-0.9,0c-0.4,0-0.9,0-1.4,0.1s-0.9,0.2-0.9,0.4c-0.1,0.2-0.2,1.2-0.3,3
		s-0.2,3.2-0.2,4.1c0,0.4,0.1,0.9,0.2,1.4c0,0.1,0,0.2,0,0.2c0,0.2-0.1,0.4-0.1,0.6s-0.2,0.3-0.3,0.3c-0.2,0-0.4-0.1-0.5-0.4
		c-0.1-0.3-0.2-1-0.2-2.2c0-1.1,0.2-3.3,0.5-6.5c0-0.2,0-0.3,0-0.3c0-0.2-0.1-0.3-0.2-0.3c-0.2,0-0.7,0-1.3,0.1
		c-0.7,0.1-1.1,0.1-1.4,0.1C80.3,25.4,80,25.3,79.8,25.1z"/>
	<path d="M91,31.1c-0.5,1.1-1,2-1.5,2.6s-1,0.9-1.5,0.9c-0.3,0-0.5-0.2-0.8-0.6c-0.3-0.4-0.4-1-0.4-1.8c0-0.7,0.1-1.7,0.4-3
		c0.2-1.1,0.3-1.9,0.3-2.3c0.1-0.3,0.3-0.5,0.5-0.5c0.2,0,0.3,0.1,0.4,0.2s0.2,0.3,0.2,0.5c0,0.4-0.1,0.9-0.3,1.5
		c-0.4,1.3-0.5,2.4-0.5,3.3c0,0.8,0.2,1.3,0.4,1.3c0.4,0,0.9-0.4,1.4-1.3s1.1-2,1.5-3.5c0.2-0.6,0.3-1,0.4-1.2S91.8,27,92,27
		c0.3,0,0.4,0.2,0.4,0.7c0,0.1,0,0.2-0.1,0.6c-0.2,1.1-0.3,2.2-0.3,3.2c0,1.2,0.2,2,0.4,2.3c0.2,0.2,0.2,0.3,0.2,0.5
		c0,0.1-0.1,0.3-0.2,0.4c-0.2,0.1-0.3,0.2-0.4,0.2c-0.3,0-0.5-0.3-0.7-0.8S91,32.7,91,31.6v-0.3C91,31.3,91,31.2,91,31.1z"/>
	<path d="M97.2,31.3c-0.5,1.1-1.1,1.9-1.7,2.6c-0.6,0.6-1.1,0.9-1.6,0.9c-0.4,0-0.7-0.2-0.9-0.6s-0.3-0.9-0.3-1.5
		c0-1.3,0.4-2.6,1.2-4s1.7-2,2.6-2c0.4,0,0.8,0.2,1.1,0.7l0.8-5c0.1-0.3,0.2-0.6,0.3-0.7c0.2-0.1,0.3-0.2,0.4-0.2
		c0.3,0,0.4,0.3,0.4,1c0,0.1-0.1,0.5-0.3,1.3c-0.3,1.1-0.6,2.5-0.8,4.2c-0.3,1.6-0.4,3-0.4,4c0,1,0.2,1.5,0.5,1.5
		c0.2,0,0.4-0.1,0.7-0.3c0.1-0.1,0.2-0.1,0.3-0.1c0.1,0,0.2,0.1,0.2,0.3c0,0.3-0.2,0.6-0.5,0.9s-0.7,0.5-1.1,0.5c-0.6,0-1-0.8-1-2.5
		C97.2,31.8,97.2,31.6,97.2,31.3z M96.4,27.7c-0.6,0-1.3,0.6-1.9,1.7c-0.6,1.1-0.9,2.2-0.9,3.1c0,0.6,0.2,1,0.5,1
		c0.3,0,0.7-0.2,1.1-0.6c0.4-0.4,0.9-1.1,1.3-2s0.7-1.6,0.7-2.1c0-0.2-0.1-0.5-0.2-0.7S96.7,27.7,96.4,27.7z"/>
	<path d="M101.5,34.8c-0.5,0-1-0.3-1.3-0.8s-0.5-1.2-0.5-2c0-1.3,0.3-2.6,1-3.9s1.5-1.9,2.4-1.9c0.6,0,1.1,0.3,1.5,1
		c0.4,0.6,0.6,1.4,0.6,2.3c0,1.3-0.4,2.6-1.2,3.7S102.3,34.8,101.5,34.8z M100.7,31.9c0,0.5,0.1,0.9,0.3,1.3
		c0.2,0.3,0.4,0.5,0.7,0.5c0.6,0,1.2-0.4,1.8-1.3s0.9-1.8,0.9-2.8c0-0.6-0.1-1.1-0.3-1.5c-0.2-0.4-0.5-0.6-0.9-0.6
		c-0.6,0-1.2,0.5-1.6,1.5S100.7,31,100.7,31.9z"/>
	<path d="M106.5,31.4c0-0.1,0.1-0.2,0.1-0.4c0.3-0.8,0.5-1.4,0.7-1.9c0.2-0.5,0.5-0.9,0.7-1.3c0.3-0.4,0.5-0.7,0.7-1
		s0.4-0.4,0.6-0.5s0.3-0.1,0.5-0.1c0.3,0,0.6,0.1,0.8,0.4s0.3,0.6,0.3,0.9c0,0.2,0,0.3-0.1,0.4c-0.1,0.1-0.2,0.2-0.3,0.2
		c-0.2,0-0.3-0.1-0.4-0.3s-0.3-0.3-0.4-0.3c-0.4,0-1,0.6-1.7,1.9s-1.2,2.7-1.3,4.3c0,0.4-0.1,0.7-0.2,0.8s-0.3,0.2-0.5,0.2
		c-0.2,0-0.3-0.2-0.4-0.6s-0.1-1-0.1-1.9c0-0.2,0-0.8,0-1.6c0-1,0.1-1.8,0.1-2.4c0-0.1,0-0.3,0.1-0.7c0-0.4,0.1-0.7,0.1-0.8
		s0.1-0.3,0.3-0.4c0.1-0.1,0.3-0.2,0.4-0.2c0.1,0,0.3,0.1,0.3,0.2c0.1,0.1,0.1,0.3,0.1,0.4c0,0.2,0,0.5-0.1,0.9
		c-0.1,0.4-0.1,0.7-0.2,0.8c0,0.2,0,0.4-0.1,0.5c0,0.2-0.1,0.8-0.1,1.7l0,0.3L106.5,31.4L106.5,31.4z"/>
</g>
</svg>
